<?xml version="1.0" standalone="no"?><!DOCTYPE svg PUBLIC "-//W3C//DTD SVG 1.1//EN" "http://www.w3.org/Graphics/SVG/1.1/DTD/svg11.dtd"><svg t="1606722128116" class="icon" viewBox="0 0 1024 1024" version="1.1" xmlns="http://www.w3.org/2000/svg" p-id="2989" xmlns:xlink="http://www.w3.org/1999/xlink" width="200" height="200"><defs><style type="text/css"></style></defs><path d="M459.072 59.584c28.928-26.176 72.96-26.176 101.824 0l411.648 390.912a37.952 37.952 0 0 1-50.816 56.384l-6.592-6.208v408a75.968 75.968 0 0 1-75.904 76.032H618.176v-228.672a53.504 53.504 0 0 0-53.504-53.568H460.672a53.504 53.504 0 0 0-53.504 53.568v228.672H180.928a75.968 75.968 0 0 1-75.968-76.032V505.6c-16.896 15.296-40.832 14.08-54.848-1.536a37.952 37.952 0 0 1 2.688-53.632L459.072 59.648z" p-id="2990" fill="#ffffff"></path></svg>